<?xml version="1.0" encoding="iso-8859-1"?>
<!-- Generator: Adobe Illustrator 19.0.0, SVG Export Plug-In . SVG Version: 6.00 Build 0)  -->
<svg version="1.1" id="Layer_1" xmlns="http://www.w3.org/2000/svg" xmlns:xlink="http://www.w3.org/1999/xlink" x="0px" y="0px"
	 viewBox="0 0 511.999 511.999" style="enable-background:new 0 0 511.999 511.999;" xml:space="preserve">
<rect x="108.698" y="138.579" style="fill:#E6E6E6;" width="32.505" height="124.289"/>
<path style="fill:#FFAA2A;" d="M140.461,90.325c0-5.025-2.193-16.083-5.865-25.888c-4.727-12.627-8.879-15.359-9.655-15.359
	c-0.774,0-4.925,2.733-9.651,15.359c-3.67,9.805-5.865,20.863-5.865,25.888c0,9.302,8.043,13.538,15.516,13.538
	C132.415,103.863,140.461,99.627,140.461,90.325z"/>
<path style="fill:#808080;" d="M157.912,274.382H91.974c1.733,5.478,5.897,10.465,11.883,14.068h42.173
	C152.017,284.848,156.179,279.861,157.912,274.382z"/>
<g>
	<path style="fill:#FFAA2A;" d="M402.575,90.325c0-5.025-2.193-16.083-5.865-25.888c-4.726-12.627-8.877-15.359-9.651-15.359
		s-4.928,2.733-9.655,15.359c-3.67,9.804-5.863,20.862-5.863,25.888c0,9.302,8.044,13.538,15.517,13.538
		C394.532,103.863,402.575,99.627,402.575,90.325z"/>
	<path style="fill:#FFAA2A;" d="M271.519,52.753c0-5.026-2.193-16.083-5.865-25.888c-4.728-12.627-8.882-15.359-9.657-15.359
		c-0.774,0-4.923,2.733-9.65,15.359c-3.672,9.805-5.865,20.863-5.865,25.888c0,9.302,8.043,13.538,15.515,13.538
		C263.473,66.29,271.519,62.055,271.519,52.753z"/>
</g>
<path style="fill:#333333;" d="M145.531,312.991c0-4.812-1.637-9.365-4.652-13.034h-31.871c-3.015,3.67-4.652,8.223-4.652,13.034
	c0,4.813,1.637,9.365,4.651,13.032h31.872C143.894,322.356,145.531,317.804,145.531,312.991z"/>
<g>
	<rect x="370.807" y="138.579" style="fill:#E6E6E6;" width="32.505" height="124.289"/>
	<rect x="239.752" y="101.012" style="fill:#E6E6E6;" width="32.505" height="124.289"/>
</g>
<path style="fill:#333333;" d="M371.124,299.956c-3.015,3.67-4.652,8.223-4.652,13.034c0,4.814,1.637,9.366,4.651,13.032h31.871
	c3.013-3.668,4.651-8.22,4.651-13.032c0-4.811-1.638-9.362-4.652-13.034H371.124z"/>
<g>
	<path style="fill:#808080;" d="M365.971,288.449h42.172c5.987-3.603,10.15-8.589,11.882-14.068h-65.933
		C355.824,279.862,359.986,284.849,365.971,288.449z"/>
	<path style="fill:#808080;" d="M321.511,384.551c-16.703,0-31.607-7.808-41.28-19.96v33.664
		c12.371,7.702,26.579,11.762,41.28,11.762c41.206,0,75.039-32.026,77.996-72.488h-25.565
		C371.065,363.929,348.663,384.551,321.511,384.551z"/>
	<path style="fill:#808080;" d="M231.771,364.6c-9.678,12.145-24.579,19.95-41.279,19.95c-27.153,0-49.552-20.622-52.43-47.022
		h-25.577c2.958,40.463,36.802,72.488,78.007,72.488c14.699,0,28.906-4.057,41.279-11.762L231.771,364.6L231.771,364.6z"/>
	<path style="fill:#808080;" d="M197.678,500.494h116.648c-4.651-17.012-29.471-30.46-58.324-30.46
		C227.147,470.035,202.328,483.482,197.678,500.494z"/>
</g>
<path style="fill:#333333;" d="M276.59,275.42c0-4.813-1.638-9.365-4.653-13.034h-31.872c-3.015,3.669-4.653,8.221-4.653,13.034
	c0,4.81,1.637,9.36,4.653,13.03h31.872C274.952,284.78,276.59,280.231,276.59,275.42z"/>
<g>
	<path style="fill:#808080;" d="M256.001,458.529c4.313,0,8.565,0.267,12.723,0.771V299.956h-25.448V459.3
		C247.436,458.796,251.689,458.529,256.001,458.529z"/>
	<path style="fill:#808080;" d="M288.971,236.81h-65.938c1.733,5.479,5.896,10.466,11.881,14.071h42.174
		C283.074,247.275,287.239,242.287,288.971,236.81z"/>
</g>
<path d="M426.679,262.876h-11.864V132.83c0-3.178-2.575-5.753-5.753-5.753h-16.25v-12.208c12.611-2.246,21.268-11.878,21.268-24.544
	c0-10.439-8.691-52.753-27.021-52.753c-18.333,0-27.023,42.312-27.023,52.753c0,12.666,8.657,22.298,21.27,24.544v12.208h-16.25
	c-3.178,0-5.753,2.575-5.753,5.753v130.045h-11.864c-3.178,0-5.753,2.575-5.753,5.753c0,11.371,6.381,21.994,17.21,28.954
	c-2.566,4.667-3.93,9.927-3.93,15.408c0,7.77,2.742,15.095,7.76,20.91c-1.11,21.773-19.171,39.145-41.215,39.145
	c-22.754,0-41.267-18.513-41.267-41.269c0-0.046-0.013-0.087-0.014-0.133v-35.196c5.086-5.837,7.866-13.208,7.866-21.025
	c0-5.48-1.366-10.741-3.932-15.408c10.831-6.967,17.213-17.588,17.213-28.956c0-3.178-2.575-5.753-5.753-5.753h-11.865V95.258
	c0-3.178-2.575-5.753-5.753-5.753h-16.255V77.297c12.615-2.246,21.275-11.878,21.275-24.544C283.026,42.314,274.333,0,255.997,0
	c-18.33,0-27.021,42.312-27.021,52.753c0,12.666,8.657,22.298,21.268,24.544v12.208h-16.248c-3.177,0-5.753,2.575-5.753,5.753
	v130.045h-11.864c-3.177,0-5.753,2.575-5.753,5.753c0,11.371,6.384,21.996,17.218,28.961c-2.566,4.667-3.939,9.923-3.939,15.403
	c0,7.817,2.781,15.187,7.864,21.025v35.229c-0.001,0.033-0.01,0.067-0.01,0.1c0,22.756-18.513,41.269-41.269,41.269
	c-22.042,0-40.103-17.372-41.214-39.145c5.018-5.816,7.76-13.14,7.76-20.91c0-5.482-1.365-10.741-3.932-15.408
	c10.831-6.962,17.212-17.584,17.212-28.954c0-3.178-2.576-5.753-5.753-5.753h-11.865V132.83c0-3.178-2.576-5.753-5.753-5.753
	h-16.252v-12.208c12.613-2.246,21.271-11.878,21.271-24.544c0-10.439-8.692-52.753-27.024-52.753
	c-18.331,0-27.022,42.312-27.022,52.753c0,12.666,8.657,22.298,21.269,24.544v12.208h-16.248c-3.177,0-5.753,2.575-5.753,5.753
	v130.045H85.321c-3.177,0-5.753,2.575-5.753,5.753c0,11.375,6.389,22.001,17.23,28.964c-2.565,4.668-3.948,9.918-3.948,15.397
	c0,7.867,2.812,15.279,7.953,21.13c1.252,48.405,40.988,87.402,89.688,87.402c14.502,0,28.586-3.451,41.279-10.041v49.898
	c-9.159,2.23-17.587,5.724-24.757,10.364c-13.944,9.023-21.625,21.276-21.625,34.503c0,3.178,2.576,5.753,5.753,5.753h129.716
	c3.178,0,5.753-2.575,5.753-5.753c0-13.227-7.68-25.48-21.625-34.503c-7.169-4.639-15.599-8.134-24.758-10.364v-49.912
	c12.692,6.592,26.776,10.054,41.28,10.054c48.701,0,88.437-38.999,89.688-87.404c5.14-5.852,7.952-13.263,7.952-21.129
	c0-5.479-1.367-10.739-3.934-15.407c10.833-6.962,17.215-17.585,17.215-28.955C432.432,265.451,429.857,262.876,426.679,262.876z
	 M371.542,90.325c0-5.026,2.193-16.083,5.863-25.888c4.726-12.627,8.88-15.359,9.655-15.359c0.774,0,4.925,2.733,9.651,15.359
	c3.67,9.804,5.865,20.863,5.865,25.888c0,9.302-8.043,13.538-15.515,13.538C379.586,103.863,371.542,99.627,371.542,90.325z
	 M370.81,138.583h32.5v124.292h-32.5V138.583z M240.482,52.753c0-5.025,2.194-16.082,5.865-25.888
	c4.727-12.627,8.877-15.359,9.651-15.359c0.776,0,4.93,2.733,9.658,15.359c3.67,9.804,5.865,20.862,5.865,25.888
	c0,9.302-8.046,13.538-15.523,13.538C248.525,66.29,240.482,62.055,240.482,52.753z M239.75,101.011h32.504v124.292H239.75
	L239.75,101.011L239.75,101.011z M109.425,90.325c0-5.025,2.193-16.082,5.865-25.888c4.727-12.627,8.877-15.359,9.651-15.359
	c0.774,0,4.927,2.733,9.655,15.359c3.67,9.804,5.865,20.863,5.865,25.888c0,9.302-8.044,13.538-15.518,13.538
	C117.469,103.863,109.425,99.627,109.425,90.325z M108.692,138.583h32.502v124.292h-32.502V138.583z M91.974,274.382h65.937
	c-1.732,5.479-5.895,10.466-11.88,14.068h-42.173C97.871,284.846,93.708,279.86,91.974,274.382z M104.357,312.991
	c0-4.811,1.637-9.364,4.652-13.034h31.87c3.015,3.669,4.652,8.223,4.652,13.034c0,4.814-1.637,9.366-4.651,13.032h-31.872
	C105.994,322.354,104.357,317.803,104.357,312.991z M190.491,410.017c-41.204,0-75.05-32.025-78.007-72.488h25.577
	c2.879,26.4,25.278,47.022,52.43,47.022c16.7,0,31.601-7.806,41.279-19.95v33.655C219.397,405.959,205.19,410.017,190.491,410.017z
	 M314.326,500.494H197.678c4.651-17.012,29.471-30.46,58.323-30.46C284.854,470.035,309.675,483.482,314.326,500.494z
	 M240.065,288.449c-3.015-3.669-4.653-8.221-4.653-13.029c0-4.813,1.637-9.365,4.653-13.034h31.872
	c3.015,3.669,4.653,8.221,4.653,13.034c0,4.811-1.638,9.36-4.653,13.029H240.065z M268.725,299.956V459.3
	c-4.158-0.504-8.412-0.771-12.723-0.771c-4.312,0-8.565,0.267-12.725,0.771V299.956H268.725z M277.088,250.88h-42.174
	c-5.985-3.605-10.148-8.592-11.881-14.071h65.938C287.239,242.287,283.074,247.275,277.088,250.88z M321.511,410.017
	c-14.701,0-28.909-4.058-41.28-11.762v-33.664c9.673,12.152,24.577,19.96,41.28,19.96c27.153,0,49.554-20.621,52.431-47.022h25.565
	C396.55,377.991,362.715,410.017,321.511,410.017z M402.994,326.023h-31.871c-3.013-3.667-4.651-8.219-4.651-13.032
	c0-4.812,1.637-9.364,4.652-13.034h31.868c3.013,3.672,4.652,8.223,4.652,13.034C407.644,317.803,406.007,322.353,402.994,326.023z
	 M408.144,288.449h-42.172c-5.984-3.601-10.146-8.588-11.878-14.068h65.933C418.293,279.861,414.13,284.848,408.144,288.449z"/>
<g>
</g>
<g>
</g>
<g>
</g>
<g>
</g>
<g>
</g>
<g>
</g>
<g>
</g>
<g>
</g>
<g>
</g>
<g>
</g>
<g>
</g>
<g>
</g>
<g>
</g>
<g>
</g>
<g>
</g>
</svg>
